<svg width="882" height="200" viewBox="0 0 882 200" fill="none" xmlns="http://www.w3.org/2000/svg">
<path d="M0 27.027C0 12.1004 12.1004 0 27.027 0H144.788C159.714 0 171.815 12.1004 171.815 27.027V144.788C171.815 159.714 159.714 171.815 144.788 171.815H27.027C12.1004 171.815 0 159.714 0 144.788V27.027Z" fill="#57C3FF"/>
<path d="M12.3552 39.7683C12.3552 24.8417 24.4556 12.7413 39.3822 12.7413H157.143C172.069 12.7413 184.17 24.8417 184.17 39.7683V157.529C184.17 172.456 172.069 184.556 157.143 184.556H39.3822C24.4556 184.556 12.3552 172.456 12.3552 157.529V39.7683Z" fill="#0AF13D"/>
<path d="M28.5714 55.2124C28.5714 40.2857 40.6718 28.1853 55.5985 28.1853H173.359C188.286 28.1853 200.386 40.2857 200.386 55.2124V172.973C200.386 187.9 188.286 200 173.359 200H55.5985C40.6718 200 28.5714 187.9 28.5714 172.973V55.2124Z" fill="#FFD646"/>
<path d="M153.389 63.7066H75.569C69.2298 63.7066 64.0928 68.8435 64.0928 75.1828V153.003C64.0928 159.342 69.2298 164.479 75.569 164.479H153.389C159.728 164.479 164.865 159.342 164.865 153.003V75.1828C164.865 68.8435 159.728 63.7066 153.389 63.7066ZM159.4 153.003C159.4 156.391 156.668 159.014 153.389 159.014H75.569C72.1808 159.014 69.5576 156.281 69.5576 153.003V140.543L88.3568 121.743L104.424 137.81C105.516 138.903 107.265 138.903 108.249 137.81L137.541 108.628L159.4 130.487V153.003ZM159.4 122.836L139.508 102.835C138.524 101.851 136.666 101.851 135.683 102.835L106.391 132.017L90.3242 115.951C89.2312 114.858 87.4824 114.858 86.4987 115.951L69.5576 132.783V75.1828C69.5576 71.7946 72.2901 69.1714 75.569 69.1714H153.389C156.777 69.1714 159.4 71.9039 159.4 75.1828V122.836ZM95.3518 78.3524C88.1382 78.3524 82.3454 84.1452 82.3454 91.3588C82.3454 98.5724 88.2475 104.365 95.3518 104.365C102.456 104.365 108.358 98.5724 108.358 91.3588C108.358 84.1452 102.565 78.3524 95.3518 78.3524ZM95.3518 98.9003C91.1985 98.9003 87.8103 95.5121 87.8103 91.3588C87.8103 87.2055 91.1985 83.8173 95.3518 83.8173C99.5051 83.8173 102.893 87.2055 102.893 91.3588C102.893 95.5121 99.6144 98.9003 95.3518 98.9003Z" fill="white"/>
<path d="M279.691 129.498C262.548 129.498 251.815 118.147 251.815 100.077C251.815 82.2395 263.166 70.502 280.232 70.502C294.517 70.502 304.788 78.6873 306.564 91.5059H293.359C291.66 85.7916 286.795 82.5483 279.923 82.5483C270.656 82.5483 265.019 89.112 265.019 100C265.019 110.734 270.734 117.452 279.923 117.452C286.95 117.452 292.124 113.977 293.668 108.34H306.641C304.633 121.081 293.977 129.498 279.691 129.498Z" fill="black"/>
<path d="M311.455 109.189C311.455 96.9885 320.413 88.8032 332.768 88.8032C345.046 88.8032 354.003 96.9885 354.003 109.189C354.003 121.39 345.046 129.498 332.768 129.498C320.413 129.498 311.455 121.39 311.455 109.189ZM323.424 109.112C323.424 114.981 327.208 118.842 332.768 118.842C338.25 118.842 342.034 114.981 342.034 109.112C342.034 103.321 338.25 99.4595 332.768 99.4595C327.208 99.4595 323.424 103.321 323.424 109.112Z" fill="black"/>
<path d="M372.79 128.572H360.898V89.9615H372.017L372.79 93.9769C374.72 91.2742 378.504 88.7259 384.064 88.7259C389.855 88.7259 393.562 91.4286 395.801 95.5213C397.809 91.4286 402.365 88.7259 407.925 88.7259C417.886 88.7259 422.828 94.5174 422.828 103.321V128.572H410.936V106.641C410.936 101.776 408.388 99.4595 404.604 99.4595C401.207 99.4595 397.809 101.313 397.809 107.877V128.572H385.917V106.641C385.917 101.853 383.446 99.5368 379.662 99.5368C376.264 99.5368 372.79 101.39 372.79 107.877V128.572Z" fill="black"/>
<path d="M431.331 147.104V89.9615H442.528L443.145 94.6719C445.308 91.1198 450.172 88.7259 455.655 88.7259C466.389 88.7259 473.879 96.2163 473.879 108.649C473.879 120.849 467.238 129.653 455.732 129.653C450.404 129.653 445.462 127.645 443.223 124.71V147.104H431.331ZM443.3 109.266C443.3 115.058 447.161 118.919 452.721 118.919C458.358 118.919 461.91 114.981 461.91 109.266C461.91 103.552 458.358 99.614 452.721 99.614C447.161 99.614 443.3 103.475 443.3 109.266Z" fill="black"/>
<path d="M478.64 109.189C478.64 96.9885 487.597 88.8032 499.952 88.8032C512.23 88.8032 521.188 96.9885 521.188 109.189C521.188 121.39 512.23 129.498 499.952 129.498C487.597 129.498 478.64 121.39 478.64 109.189ZM490.609 109.112C490.609 114.981 494.392 118.842 499.952 118.842C505.435 118.842 509.219 114.981 509.219 109.112C509.219 103.321 505.435 99.4595 499.952 99.4595C494.392 99.4595 490.609 103.321 490.609 109.112Z" fill="black"/>
<path d="M525.302 116.371H536.576C536.731 119.073 538.738 120.695 542.368 120.695C546.074 120.695 547.773 119.382 547.773 117.375C547.773 116.216 547.155 114.981 544.298 114.363L537.194 112.819C530.09 111.274 526.615 108.185 526.615 101.39C526.615 93.3591 533.487 88.7259 542.754 88.7259C551.711 88.7259 557.966 93.9769 557.966 101.776H546.692C546.692 99.1506 545.071 97.3746 542.213 97.3746C539.511 97.3746 537.812 98.7646 537.812 100.849C537.812 102.626 539.279 103.629 541.982 104.247L549.163 105.792C555.495 107.182 558.97 110.116 558.97 116.294C558.97 124.556 551.943 129.575 541.904 129.575C531.711 129.575 525.302 124.17 525.302 116.371Z" fill="black"/>
<path d="M583.099 129.575C571.439 129.575 563.099 121.081 563.099 109.189C563.099 97.1429 571.207 88.7259 582.867 88.7259C594.991 88.7259 602.558 96.6796 602.558 109.266V112.278L574.528 112.433C575.223 117.529 578.08 119.923 583.331 119.923C587.809 119.923 590.975 118.301 591.825 115.521H602.713C601.323 124.093 593.678 129.575 583.099 129.575ZM582.945 98.3784C578.234 98.3784 575.609 100.463 574.682 105.097H590.744C590.744 101.004 587.732 98.3784 582.945 98.3784Z" fill="black"/>
<path d="M628.106 108.572C628.106 96.8341 635.751 88.6487 646.639 88.6487C651.89 88.6487 656.06 90.6564 658.145 93.8225L658.763 89.9615H669.96V126.1C669.96 139.923 662.006 148.263 648.801 148.263C636.987 148.263 629.033 141.544 627.952 130.579H639.998C640.23 134.904 643.473 137.452 648.724 137.452C654.438 137.452 658.068 134.054 658.068 128.572V123.552C655.751 126.332 651.427 128.108 646.407 128.108C635.597 128.108 628.106 120.155 628.106 108.572ZM640.075 108.263C640.075 113.822 643.782 117.761 649.033 117.761C654.438 117.761 658.068 113.977 658.068 108.263C658.068 102.626 654.438 98.9962 648.956 98.9962C643.705 98.9962 640.075 102.78 640.075 108.263Z" fill="black"/>
<path d="M690.563 129.575C682.377 129.575 677.281 124.788 677.281 117.22C677.281 110.116 682.3 105.714 691.567 105.019L702.377 104.17V103.552C702.377 99.7684 700.061 97.7607 695.814 97.7607C690.794 97.7607 688.092 99.6912 688.092 103.166H678.208C678.208 94.4402 685.389 88.7259 696.432 88.7259C707.628 88.7259 713.96 94.9808 713.96 106.023V128.572H703.459L702.686 123.475C701.451 127.027 696.354 129.575 690.563 129.575ZM694.733 120.772C699.289 120.772 702.455 118.533 702.455 114.131V112.046L696.432 112.587C691.258 113.05 689.404 114.209 689.404 116.68C689.404 119.46 691.103 120.772 694.733 120.772Z" fill="black"/>
<path d="M734.382 128.572H722.49V70.3476H734.382V128.572Z" fill="black"/>
<path d="M755.195 128.572H743.303V70.3476H755.195V128.572Z" fill="black"/>
<path d="M782.031 129.575C770.371 129.575 762.031 121.081 762.031 109.189C762.031 97.1429 770.139 88.7259 781.799 88.7259C793.923 88.7259 801.491 96.6796 801.491 109.266V112.278L773.46 112.433C774.155 117.529 777.012 119.923 782.263 119.923C786.742 119.923 789.908 118.301 790.757 115.521H801.645C800.255 124.093 792.61 129.575 782.031 129.575ZM781.877 98.3784C777.166 98.3784 774.541 100.463 773.614 105.097H789.676C789.676 101.004 786.664 98.3784 781.877 98.3784Z" fill="black"/>
<path d="M835.096 89.9615V101.158H831.313C824.517 101.158 820.425 104.17 820.425 111.815V128.572H808.533V90.0387H819.73L820.347 95.753C821.969 91.9692 825.367 89.4209 830.54 89.4209C831.93 89.4209 833.475 89.5754 835.096 89.9615Z" fill="black"/>
<path d="M839.152 147.104V137.143H845.716C849.731 137.143 851.43 135.907 852.975 131.738L853.67 129.884L838.148 89.9615H850.89L859.307 114.749L868.65 89.9615H881.006L861.392 136.988C858.148 144.865 853.824 148.185 847.029 148.185C844.172 148.185 841.469 147.799 839.152 147.104Z" fill="black"/>
</svg>
