<svg width="882" height="200" viewBox="0 0 882 200" fill="none" xmlns="http://www.w3.org/2000/svg">
<path d="M0 27.027C0 12.1004 12.1004 0 27.027 0H144.788C159.714 0 171.815 12.1004 171.815 27.027V144.788C171.815 159.714 159.714 171.815 144.788 171.815H27.027C12.1004 171.815 0 159.714 0 144.788V27.027Z" fill="#D1D1D1"/>
<path d="M12.3552 39.7683C12.3552 24.8417 24.4556 12.7413 39.3822 12.7413H157.143C172.069 12.7413 184.17 24.8417 184.17 39.7683V157.529C184.17 172.456 172.069 184.556 157.143 184.556H39.3822C24.4556 184.556 12.3552 172.456 12.3552 157.529V39.7683Z" fill="#8D8D8D"/>
<path d="M28.5714 55.2124C28.5714 40.2857 40.6718 28.1853 55.5985 28.1853H173.359C188.286 28.1853 200.386 40.2857 200.386 55.2124V172.973C200.386 187.9 188.286 200 173.359 200H55.5985C40.6718 200 28.5714 187.9 28.5714 172.973V55.2124Z" fill="#0B0B0B"/>
<path d="M153.389 63.7065H75.569C69.2298 63.7065 64.0928 68.8435 64.0928 75.1828V153.003C64.0928 159.342 69.2298 164.479 75.569 164.479H153.389C159.728 164.479 164.865 159.342 164.865 153.003V75.1828C164.865 68.8435 159.728 63.7065 153.389 63.7065ZM159.4 153.003C159.4 156.391 156.668 159.014 153.389 159.014H75.569C72.1808 159.014 69.5576 156.281 69.5576 153.003V140.543L88.3568 121.743L104.424 137.81C105.516 138.903 107.265 138.903 108.249 137.81L137.541 108.628L159.4 130.487V153.003ZM159.4 122.836L139.508 102.835C138.524 101.851 136.666 101.851 135.683 102.835L106.391 132.017L90.3241 115.951C89.2312 114.858 87.4824 114.858 86.4987 115.951L69.5576 132.782V75.1828C69.5576 71.7946 72.2901 69.1714 75.569 69.1714H153.389C156.777 69.1714 159.4 71.9038 159.4 75.1828V122.836ZM95.3518 78.3524C88.1382 78.3524 82.3454 84.1452 82.3454 91.3588C82.3454 98.5724 88.2475 104.365 95.3518 104.365C102.456 104.365 108.358 98.5724 108.358 91.3588C108.358 84.1452 102.565 78.3524 95.3518 78.3524ZM95.3518 98.9003C91.1985 98.9003 87.8103 95.5121 87.8103 91.3588C87.8103 87.2055 91.1985 83.8173 95.3518 83.8173C99.5051 83.8173 102.893 87.2055 102.893 91.3588C102.893 95.5121 99.6144 98.9003 95.3518 98.9003Z" fill="white"/>
<path d="M279.691 129.498C262.548 129.498 251.815 118.147 251.815 100.077C251.815 82.2394 263.166 70.502 280.232 70.502C294.517 70.502 304.788 78.6873 306.564 91.5058H293.359C291.66 85.7915 286.795 82.5483 279.923 82.5483C270.656 82.5483 265.019 89.112 265.019 100C265.019 110.734 270.734 117.452 279.923 117.452C286.95 117.452 292.124 113.977 293.668 108.34H306.641C304.633 121.081 293.977 129.498 279.691 129.498Z" fill="#0B0B0B"/>
<path d="M311.455 109.189C311.455 96.9885 320.413 88.8031 332.768 88.8031C345.046 88.8031 354.003 96.9885 354.003 109.189C354.003 121.39 345.046 129.498 332.768 129.498C320.413 129.498 311.455 121.39 311.455 109.189ZM323.424 109.112C323.424 114.981 327.208 118.842 332.768 118.842C338.251 118.842 342.034 114.981 342.034 109.112C342.034 103.321 338.251 99.4595 332.768 99.4595C327.208 99.4595 323.424 103.321 323.424 109.112Z" fill="#0B0B0B"/>
<path d="M372.79 128.571H360.898V89.9614H372.017L372.79 93.9769C374.72 91.2742 378.504 88.7259 384.064 88.7259C389.855 88.7259 393.562 91.4286 395.801 95.5213C397.809 91.4286 402.365 88.7259 407.925 88.7259C417.886 88.7259 422.828 94.5174 422.828 103.321V128.571H410.936V106.641C410.936 101.776 408.388 99.4595 404.604 99.4595C401.207 99.4595 397.809 101.313 397.809 107.876V128.571H385.917V106.641C385.917 101.853 383.446 99.5367 379.662 99.5367C376.264 99.5367 372.79 101.39 372.79 107.876V128.571Z" fill="#0B0B0B"/>
<path d="M431.331 147.104V89.9614H442.528L443.146 94.6719C445.308 91.1197 450.173 88.7259 455.655 88.7259C466.389 88.7259 473.879 96.2163 473.879 108.649C473.879 120.849 467.238 129.653 455.732 129.653C450.404 129.653 445.462 127.645 443.223 124.71V147.104H431.331ZM443.3 109.266C443.3 115.058 447.161 118.919 452.721 118.919C458.358 118.919 461.91 114.981 461.91 109.266C461.91 103.552 458.358 99.6139 452.721 99.6139C447.161 99.6139 443.3 103.475 443.3 109.266Z" fill="#0B0B0B"/>
<path d="M478.64 109.189C478.64 96.9885 487.597 88.8031 499.952 88.8031C512.23 88.8031 521.188 96.9885 521.188 109.189C521.188 121.39 512.23 129.498 499.952 129.498C487.597 129.498 478.64 121.39 478.64 109.189ZM490.609 109.112C490.609 114.981 494.392 118.842 499.952 118.842C505.435 118.842 509.219 114.981 509.219 109.112C509.219 103.321 505.435 99.4595 499.952 99.4595C494.392 99.4595 490.609 103.321 490.609 109.112Z" fill="#0B0B0B"/>
<path d="M525.302 116.371H536.576C536.731 119.073 538.739 120.695 542.368 120.695C546.074 120.695 547.773 119.382 547.773 117.375C547.773 116.216 547.156 114.981 544.298 114.363L537.194 112.819C530.09 111.274 526.615 108.185 526.615 101.39C526.615 93.3591 533.488 88.7259 542.754 88.7259C551.712 88.7259 557.966 93.9769 557.966 101.776H546.692C546.692 99.1506 545.071 97.3746 542.213 97.3746C539.511 97.3746 537.812 98.7645 537.812 100.849C537.812 102.626 539.279 103.629 541.982 104.247L549.163 105.792C555.495 107.182 558.97 110.116 558.97 116.293C558.97 124.556 551.943 129.575 541.905 129.575C531.712 129.575 525.302 124.17 525.302 116.371Z" fill="#0B0B0B"/>
<path d="M583.099 129.575C571.439 129.575 563.099 121.081 563.099 109.189C563.099 97.1429 571.207 88.7259 582.867 88.7259C594.991 88.7259 602.559 96.6796 602.559 109.266V112.278L574.528 112.432C575.223 117.529 578.08 119.923 583.331 119.923C587.809 119.923 590.976 118.301 591.825 115.521H602.713C601.323 124.093 593.678 129.575 583.099 129.575ZM582.945 98.3784C578.234 98.3784 575.609 100.463 574.682 105.097H590.744C590.744 101.004 587.732 98.3784 582.945 98.3784Z" fill="#0B0B0B"/>
<path d="M628.106 108.571C628.106 96.834 635.751 88.6487 646.639 88.6487C651.89 88.6487 656.06 90.6564 658.145 93.8224L658.763 89.9614H669.96V126.1C669.96 139.923 662.006 148.263 648.801 148.263C636.987 148.263 629.033 141.544 627.952 130.579H639.998C640.23 134.904 643.473 137.452 648.724 137.452C654.438 137.452 658.068 134.054 658.068 128.571V123.552C655.751 126.332 651.427 128.108 646.407 128.108C635.597 128.108 628.106 120.154 628.106 108.571ZM640.075 108.263C640.075 113.822 643.782 117.761 649.033 117.761C654.438 117.761 658.068 113.977 658.068 108.263C658.068 102.626 654.438 98.9962 648.956 98.9962C643.705 98.9962 640.075 102.78 640.075 108.263Z" fill="#0B0B0B"/>
<path d="M690.563 129.575C682.378 129.575 677.281 124.788 677.281 117.22C677.281 110.116 682.3 105.714 691.567 105.019L702.378 104.17V103.552C702.378 99.7684 700.061 97.7607 695.814 97.7607C690.794 97.7607 688.092 99.6912 688.092 103.166H678.208C678.208 94.4402 685.389 88.7259 696.432 88.7259C707.629 88.7259 713.961 94.9807 713.961 106.023V128.571H703.459L702.686 123.475C701.451 127.027 696.354 129.575 690.563 129.575ZM694.733 120.772C699.289 120.772 702.455 118.533 702.455 114.131V112.046L696.432 112.587C691.258 113.05 689.405 114.209 689.405 116.68C689.405 119.459 691.103 120.772 694.733 120.772Z" fill="#0B0B0B"/>
<path d="M734.382 128.571H722.49V70.3475H734.382V128.571Z" fill="#0B0B0B"/>
<path d="M755.195 128.571H743.303V70.3475H755.195V128.571Z" fill="#0B0B0B"/>
<path d="M782.031 129.575C770.371 129.575 762.031 121.081 762.031 109.189C762.031 97.1429 770.139 88.7259 781.8 88.7259C793.923 88.7259 801.491 96.6796 801.491 109.266V112.278L773.46 112.432C774.155 117.529 777.012 119.923 782.263 119.923C786.742 119.923 789.908 118.301 790.757 115.521H801.645C800.255 124.093 792.61 129.575 782.031 129.575ZM781.877 98.3784C777.166 98.3784 774.541 100.463 773.614 105.097H789.676C789.676 101.004 786.664 98.3784 781.877 98.3784Z" fill="#0B0B0B"/>
<path d="M835.096 89.9614V101.158H831.313C824.517 101.158 820.425 104.17 820.425 111.815V128.571H808.533V90.0387H819.73L820.347 95.7529C821.969 91.9692 825.367 89.4209 830.541 89.4209C831.93 89.4209 833.475 89.5753 835.096 89.9614Z" fill="#0B0B0B"/>
<path d="M839.152 147.104V137.143H845.716C849.732 137.143 851.43 135.907 852.975 131.737L853.67 129.884L838.149 89.9614H850.89L859.307 114.749L868.65 89.9614H881.006L861.392 136.988C858.149 144.865 853.824 148.185 847.029 148.185C844.172 148.185 841.469 147.799 839.152 147.104Z" fill="#0B0B0B"/>
<path d="M257.85 175H253.925V156.5H257.85L263.35 170.3L268.875 156.5H272.85V175H268.925V171.125C268.925 167.125 268.925 166.25 269.125 164.875L265.2 175H261.5L257.6 164.875C257.825 166.25 257.85 167.8 257.85 169.825V175ZM278.128 160.55C276.903 160.55 275.928 159.575 275.928 158.35C275.928 157.125 276.903 156.175 278.128 156.175C279.328 156.175 280.303 157.125 280.303 158.35C280.303 159.575 279.328 160.55 278.128 160.55ZM276.228 175V162.5H280.078V175H276.228ZM286.817 175H282.967V162.5H286.592L286.842 163.8C287.617 162.725 289.042 162.1 290.667 162.1C293.642 162.1 295.367 164 295.367 167.275V175H291.517V168.2C291.517 166.625 290.642 165.6 289.317 165.6C287.792 165.6 286.817 166.6 286.817 168.15V175ZM300.028 160.55C298.803 160.55 297.828 159.575 297.828 158.35C297.828 157.125 298.803 156.175 300.028 156.175C301.228 156.175 302.203 157.125 302.203 158.35C302.203 159.575 301.228 160.55 300.028 160.55ZM298.128 175V162.5H301.978V175H298.128ZM308.716 175H304.866V162.5H308.466L308.716 163.8C309.341 162.925 310.566 162.1 312.366 162.1C314.241 162.1 315.441 162.975 316.166 164.3C316.816 162.975 318.291 162.1 320.091 162.1C323.316 162.1 324.916 163.975 324.916 166.825V175H321.066V167.9C321.066 166.325 320.241 165.575 319.016 165.575C317.916 165.575 316.816 166.175 316.816 168.3V175H312.966V167.9C312.966 166.35 312.166 165.6 310.941 165.6C309.841 165.6 308.716 166.2 308.716 168.3V175ZM331.444 175.325C328.794 175.325 327.144 173.775 327.144 171.325C327.144 169.025 328.769 167.6 331.769 167.375L335.269 167.1V166.9C335.269 165.675 334.519 165.025 333.144 165.025C331.519 165.025 330.644 165.65 330.644 166.775H327.444C327.444 163.95 329.769 162.1 333.344 162.1C336.969 162.1 339.019 164.125 339.019 167.7V175H335.619L335.369 173.35C334.969 174.5 333.319 175.325 331.444 175.325ZM332.794 172.475C334.269 172.475 335.294 171.75 335.294 170.325V169.65L333.344 169.825C331.669 169.975 331.069 170.35 331.069 171.15C331.069 172.05 331.619 172.475 332.794 172.475ZM345.63 175H341.78V156.15H345.63V175ZM353.218 173.725C353.218 176.125 351.543 177.975 349.193 178.225V176.85C350.443 176.625 351.343 175.95 351.418 174.925C351.218 175.025 350.968 175.075 350.693 175.075C349.518 175.075 348.618 174.2 348.618 173.1C348.618 171.725 349.468 170.8 350.768 170.8C352.218 170.8 353.218 172 353.218 173.725ZM361.65 162.5H363.375V161.5C363.375 157.775 365.325 156.15 368.5 156.15C369.025 156.15 369.625 156.2 370.225 156.3V159.6H369.15C367.575 159.6 367.225 160.425 367.225 161.5V162.5H370.225V165.7H367.225V175H363.375V165.7H361.65V162.5ZM380.256 162.5H384.106V175H380.481L380.231 173.6C379.456 174.625 377.906 175.325 376.406 175.325C373.556 175.325 371.806 173.425 371.806 170.35V162.5H375.656V168.95C375.656 171 376.356 171.9 377.931 171.9C379.581 171.9 380.256 171.05 380.256 169V162.5ZM390.845 175H386.995V156.15H390.845V175ZM397.583 175H393.733V156.15H397.583V175ZM399.471 181V177.775H401.596C402.896 177.775 403.446 177.375 403.946 176.025L404.171 175.425L399.146 162.5H403.271L405.996 170.525L409.021 162.5H413.021L406.671 177.725C405.621 180.275 404.221 181.35 402.021 181.35C401.096 181.35 400.221 181.225 399.471 181ZM420.548 168.7C420.548 164.85 423.198 162.1 426.948 162.1C430.648 162.1 433.098 164.125 433.348 167.4H429.473C429.198 166.15 428.423 165.55 427.098 165.55C425.473 165.55 424.423 166.775 424.423 168.7C424.423 170.7 425.398 171.875 427.048 171.875C428.398 171.875 429.223 171.25 429.473 170.025H433.348C433.098 173.175 430.548 175.325 427.048 175.325C423.098 175.325 420.548 172.7 420.548 168.7ZM443.757 162.5H447.607V175H443.982L443.732 173.6C442.957 174.625 441.407 175.325 439.907 175.325C437.057 175.325 435.307 173.425 435.307 170.35V162.5H439.157V168.95C439.157 171 439.857 171.9 441.432 171.9C443.082 171.9 443.757 171.05 443.757 169V162.5ZM449.352 171.05H453.002C453.052 171.925 453.702 172.45 454.877 172.45C456.077 172.45 456.627 172.025 456.627 171.375C456.627 171 456.427 170.6 455.502 170.4L453.202 169.9C450.902 169.4 449.777 168.4 449.777 166.2C449.777 163.6 452.002 162.1 455.002 162.1C457.902 162.1 459.927 163.8 459.927 166.325H456.277C456.277 165.475 455.752 164.9 454.827 164.9C453.952 164.9 453.402 165.35 453.402 166.025C453.402 166.6 453.877 166.925 454.752 167.125L457.077 167.625C459.127 168.075 460.252 169.025 460.252 171.025C460.252 173.7 457.977 175.325 454.727 175.325C451.427 175.325 449.352 173.575 449.352 171.05ZM467.313 175H463.463V165.7H461.088V162.5H463.463V158.625H467.313V162.5H469.688V165.7H467.313V175ZM470.622 168.725C470.622 164.775 473.522 162.125 477.522 162.125C481.497 162.125 484.397 164.775 484.397 168.725C484.397 172.675 481.497 175.3 477.522 175.3C473.522 175.3 470.622 172.675 470.622 168.725ZM474.497 168.7C474.497 170.6 475.722 171.85 477.522 171.85C479.297 171.85 480.522 170.6 480.522 168.7C480.522 166.825 479.297 165.575 477.522 165.575C475.722 165.575 474.497 166.825 474.497 168.7ZM490.479 175H486.629V162.5H490.229L490.479 163.8C491.104 162.925 492.329 162.1 494.129 162.1C496.004 162.1 497.204 162.975 497.929 164.3C498.579 162.975 500.054 162.1 501.854 162.1C505.079 162.1 506.679 163.975 506.679 166.825V175H502.829V167.9C502.829 166.325 502.004 165.575 500.779 165.575C499.679 165.575 498.579 166.175 498.579 168.3V175H494.729V167.9C494.729 166.35 493.929 165.6 492.704 165.6C491.604 165.6 490.479 166.2 490.479 168.3V175ZM511.331 160.55C510.106 160.55 509.131 159.575 509.131 158.35C509.131 157.125 510.106 156.175 511.331 156.175C512.531 156.175 513.506 157.125 513.506 158.35C513.506 159.575 512.531 160.55 511.331 160.55ZM509.431 175V162.5H513.281V175H509.431ZM526.095 175H515.62V171.8L521.22 165.7H515.62V162.5H526.095V165.7L520.345 171.8H526.095V175ZM532.225 175.325C529.575 175.325 527.925 173.775 527.925 171.325C527.925 169.025 529.55 167.6 532.55 167.375L536.05 167.1V166.9C536.05 165.675 535.3 165.025 533.925 165.025C532.3 165.025 531.425 165.65 531.425 166.775H528.225C528.225 163.95 530.55 162.1 534.125 162.1C537.75 162.1 539.8 164.125 539.8 167.7V175H536.4L536.15 173.35C535.75 174.5 534.1 175.325 532.225 175.325ZM533.575 172.475C535.05 172.475 536.075 171.75 536.075 170.325V169.65L534.125 169.825C532.45 169.975 531.85 170.35 531.85 171.15C531.85 172.05 532.4 172.475 533.575 172.475ZM546.186 175H542.561V156.15H546.411V163.95C547.161 162.825 548.811 162.075 550.611 162.075C554.111 162.075 556.336 164.8 556.336 168.875C556.336 172.75 553.861 175.325 550.311 175.325C548.561 175.325 547.061 174.55 546.386 173.4L546.186 175ZM546.436 168.675C546.436 170.55 547.686 171.8 549.486 171.8C551.311 171.8 552.461 170.525 552.461 168.675C552.461 166.825 551.311 165.55 549.486 165.55C547.686 165.55 546.436 166.8 546.436 168.675ZM562.403 175H558.553V156.15H562.403V175ZM571.091 175.325C567.316 175.325 564.616 172.575 564.616 168.725C564.616 164.825 567.241 162.1 571.016 162.1C574.941 162.1 577.391 164.675 577.391 168.75V169.725L568.316 169.775C568.541 171.425 569.466 172.2 571.166 172.2C572.616 172.2 573.641 171.675 573.916 170.775H577.441C576.991 173.55 574.516 175.325 571.091 175.325ZM571.041 165.225C569.516 165.225 568.666 165.9 568.366 167.4H573.566C573.566 166.075 572.591 165.225 571.041 165.225Z" fill="black"/>
</svg>
